<?xml version="1.0" standalone="no"?>
<!DOCTYPE svg PUBLIC "-//W3C//DTD SVG 20010904//EN"
 "http://www.w3.org/TR/2001/REC-SVG-20010904/DTD/svg10.dtd">
<svg version="1.0" xmlns="http://www.w3.org/2000/svg"
 width="1024.000000pt" height="1024.000000pt" viewBox="0 0 1024.000000 1024.000000"
 preserveAspectRatio="xMidYMid meet">
<metadata>
Created by potrace 1.11, written by Peter Selinger 2001-2013
</metadata>
<g transform="translate(0.000000,1024.000000) scale(0.100000,-0.100000)"
fill="#000000" stroke="none">
<path d="M2480 10234 c-898 -35 -1345 -198 -1810 -664 -425 -424 -595 -832
-652 -1565 -19 -249 -19 -5521 0 -5770 57 -733 227 -1141 652 -1565 424 -425
832 -595 1565 -652 249 -19 5521 -19 5770 0 733 57 1141 227 1565 652 425 424
595 832 652 1565 19 249 19 5521 0 5770 -57 733 -227 1141 -652 1565 -356 357
-715 537 -1227 615 -319 49 -253 48 -3113 50 -1471 1 -2709 0 -2750 -1z m5520
-3271 c0 -1783 2 -1701 -56 -1843 -85 -205 -252 -355 -479 -432 l-70 -23
-1397 -3 -1398 -2 0 -1015 c0 -662 -4 -1041 -11 -1092 -24 -179 -113 -379
-239 -535 -237 -295 -614 -468 -1022 -468 -356 0 -683 133 -929 379 -170 171
-265 345 -314 576 -19 92 -19 300 0 402 67 355 309 659 659 828 447 216 1000
166 1388 -125 l63 -48 5 2216 5 2217 23 70 c13 39 43 106 65 150 96 186 309
338 525 375 26 4 752 8 1615 9 l1567 1 0 -1637z"/>
<path d="M4834 8182 c-67 -23 -129 -70 -171 -129 -67 -94 -63 0 -63 -1570 l0
-1423 1373 2 1372 3 55 26 c70 33 136 99 169 169 l26 55 3 1443 2 1442 -1357
0 c-1269 -1 -1361 -2 -1409 -18z m2296 -722 l0 -150 -1025 0 -1025 0 0 150 0
150 1025 0 1025 0 0 -150z m0 -860 l0 -150 -1025 0 -1025 0 0 150 0 150 1025
0 1025 0 0 -150z m-510 -860 l0 -150 -770 0 -770 0 0 150 0 150 770 0 770 0 0
-150z"/>
<path d="M3215 3464 c-212 -32 -378 -110 -517 -243 -155 -147 -228 -312 -228
-511 0 -114 19 -200 65 -296 101 -211 304 -369 555 -434 105 -27 286 -37 389
-21 429 67 741 408 718 786 -19 326 -269 604 -627 695 -83 21 -284 35 -355 24z"/>
</g>
</svg>
